<?xml version="1.0" standalone="no"?>
<!DOCTYPE svg PUBLIC "-//W3C//DTD SVG 20010904//EN"
 "http://www.w3.org/TR/2001/REC-SVG-20010904/DTD/svg10.dtd">
<svg version="1.0" xmlns="http://www.w3.org/2000/svg"
 width="1132.000000pt" height="1024.000000pt" viewBox="0 0 1132.000000 1024.000000"
 preserveAspectRatio="xMidYMid meet">

<g transform="translate(0.000000,1024.000000) scale(0.100000,-0.100000)"
fill="#000000" stroke="none">
<path d="M4907 9170 l-558 -5 -61 -105 c-33 -57 -103 -179 -156 -270 -52 -91
-110 -190 -127 -220 -18 -30 -82 -142 -143 -249 -62 -106 -112 -200 -112 -207
0 -7 44 -91 98 -186 165 -290 282 -498 309 -547 42 -74 55 -98 140 -246 44
-77 91 -158 103 -180 12 -22 42 -74 65 -115 23 -41 53 -93 65 -115 12 -22 42
-75 67 -118 24 -42 54 -96 67 -120 14 -23 83 -145 155 -272 97 -169 130 -236
126 -252 -3 -13 -25 -56 -49 -95 -23 -40 -80 -138 -126 -218 -46 -80 -105
-181 -131 -225 -26 -44 -78 -134 -116 -199 -37 -66 -72 -121 -78 -122 -5 -2
-46 60 -90 138 -44 78 -121 212 -171 297 -50 86 -128 221 -174 301 -46 80
-123 213 -171 295 -47 83 -113 195 -144 250 -32 55 -72 125 -90 155 -56 96
-224 387 -378 655 -83 143 -161 277 -173 297 -13 21 -24 40 -24 42 0 2 -40 72
-90 156 -49 84 -90 153 -90 155 0 2 -27 50 -61 107 -34 57 -71 121 -83 143
-25 44 -226 392 -286 495 -21 36 -62 108 -93 160 -147 254 -196 338 -217 378
l-24 42 -593 0 c-326 0 -593 -3 -593 -6 0 -3 29 -56 64 -118 35 -61 121 -212
191 -336 70 -124 174 -306 230 -405 189 -333 272 -480 295 -520 12 -22 61
-107 108 -190 46 -82 123 -217 170 -300 46 -82 113 -199 147 -260 35 -60 73
-128 85 -150 21 -37 51 -90 272 -480 47 -82 96 -168 108 -190 12 -22 42 -74
65 -115 23 -41 51 -91 62 -110 11 -19 66 -116 123 -215 56 -99 133 -234 170
-300 104 -186 107 -191 197 -350 47 -82 102 -179 123 -215 35 -61 113 -198
283 -500 39 -69 85 -150 102 -180 27 -46 202 -355 281 -495 12 -22 57 -101 99
-175 102 -178 170 -297 222 -390 124 -220 125 -221 139 -209 8 6 14 15 14 19
0 4 31 61 68 126 38 66 100 175 139 244 39 69 136 240 216 380 79 140 157 277
172 304 15 28 73 129 128 225 55 97 109 192 120 211 11 19 39 69 62 110 23 41
53 93 65 115 72 128 533 940 667 1175 l94 165 -20 40 c-11 22 -32 60 -47 85
-15 25 -43 74 -64 110 -20 36 -63 110 -95 165 -32 55 -69 120 -83 145 -13 25
-28 50 -32 55 -4 6 -52 87 -105 180 -54 94 -130 224 -168 290 -107 184 -258
447 -277 480 -10 17 -59 102 -110 190 -140 240 -170 294 -170 300 0 3 255 4
566 3 l565 -3 31 -55 c16 -30 35 -64 42 -75 7 -11 28 -47 46 -80 53 -95 66
-119 178 -315 58 -102 116 -205 130 -230 14 -25 28 -49 32 -55 4 -5 22 -37 40
-70 51 -93 70 -126 99 -175 14 -25 36 -63 47 -85 12 -22 28 -41 36 -43 8 -1
23 16 36 40 12 24 34 66 50 93 16 28 83 147 149 265 126 225 163 292 196 350
11 19 51 91 90 160 38 69 81 145 95 170 14 25 34 61 45 80 11 19 72 130 137
245 65 116 128 228 140 250 12 22 75 135 140 250 65 116 127 228 140 250 48
85 61 115 55 125 -6 10 -2045 11 -3188 0z"/>
<path d="M9206 9148 c-18 -30 -160 -274 -266 -458 -46 -80 -114 -197 -151
-260 -36 -63 -77 -133 -89 -155 -22 -39 -103 -179 -241 -415 -37 -63 -77 -133
-89 -155 -12 -22 -87 -152 -167 -290 -80 -137 -171 -295 -203 -350 -31 -55
-89 -154 -127 -220 -38 -66 -107 -185 -153 -265 -46 -80 -119 -205 -162 -278
-43 -73 -78 -135 -78 -137 0 -2 -40 -71 -90 -155 -49 -84 -90 -154 -90 -156 0
-2 -11 -21 -23 -42 -13 -20 -68 -113 -122 -207 -54 -93 -141 -244 -193 -335
-53 -91 -135 -234 -184 -318 -48 -83 -129 -223 -179 -310 -51 -86 -133 -229
-184 -317 -221 -383 -290 -502 -312 -537 -12 -21 -23 -39 -23 -42 0 -2 -35
-64 -78 -137 -43 -74 -116 -199 -162 -279 -46 -80 -120 -208 -165 -285 -192
-330 -234 -403 -260 -450 -15 -28 -31 -54 -35 -60 -6 -9 -66 -112 -302 -521
-32 -56 -58 -105 -58 -109 0 -4 23 -48 52 -99 28 -50 62 -111 76 -136 14 -25
34 -61 45 -80 18 -33 228 -403 379 -668 38 -67 74 -122 78 -122 9 0 43 54 147
240 110 196 235 416 368 650 68 118 133 233 145 255 12 22 33 58 45 80 40 70
317 559 338 595 11 19 39 69 62 110 23 41 53 93 65 115 12 22 69 121 125 220
57 99 113 198 125 220 12 22 42 74 65 115 23 41 53 93 65 115 12 22 61 108
108 190 219 386 251 443 272 480 32 57 172 304 315 555 68 118 133 233 145
255 54 96 121 214 235 415 67 118 172 303 233 410 60 107 175 310 255 450 159
280 161 283 237 420 29 52 74 131 100 175 26 44 100 175 165 290 65 116 131
231 147 258 15 26 28 50 28 52 0 3 11 22 23 43 13 20 47 78 74 127 28 50 98
173 156 275 57 102 115 203 127 225 21 37 149 263 295 520 35 61 73 128 85
150 12 22 62 110 111 196 49 86 89 159 89 163 0 3 -265 6 -590 6 l-590 0 -14
-22z"/>
</g>
</svg>
